<?xml version="1.0" encoding="utf-8"?>
<!-- Generator: Adobe Illustrator 16.0.0, SVG Export Plug-In . SVG Version: 6.00 Build 0)  -->
<!DOCTYPE svg PUBLIC "-//W3C//DTD SVG 1.1//EN" "http://www.w3.org/Graphics/SVG/1.1/DTD/svg11.dtd">
<svg version="1.1" id="Layer_1" xmlns="http://www.w3.org/2000/svg" xmlns:xlink="http://www.w3.org/1999/xlink" x="0px" y="0px"
	 width="175.828px" height="35.35px" viewBox="0 0 175.828 35.35" enable-background="new 0 0 175.828 35.35" xml:space="preserve">
<g>
	<path fill="#FFFFFF" d="M29.559,25.149c-0.768,4.081-4.465,8.353-11.761,8.353c-9.409,0-14.737-6.096-14.737-15.649
		c0-8.641,5.617-15.698,15.697-15.698c3.264,0,6.529,0.768,8.929,2.16l0.288-2.736h0.816c-0.144,3.024-0.144,8.305-0.096,11.569
		h-0.96c-0.48-3.792-1.44-6.192-2.88-7.584c-1.488-1.44-3.744-2.208-6.241-2.208c-2.784,0-5.088,0.816-6.528,2.304
		c-2.208,2.304-3.504,6.48-3.504,12.097c0,5.376,1.392,9.649,3.6,11.953c1.393,1.44,3.648,2.304,6.529,2.304
		c5.953,0,8.977-3.552,9.697-6.865H29.559z"/>
	<path fill="#FFFFFF" d="M52.381,32.926c-0.192,0.048-0.864,0.192-1.68,0.24c-3.457,0.288-5.425,0-5.761-2.256
		c-0.048-0.336-0.096-0.96-0.096-1.056h-0.144c-0.625,1.728-2.785,3.696-6.433,3.696c-3.552,0-6.193-1.968-6.193-5.521
		c0-1.92,0.816-3.84,3.072-4.513c2.544-0.768,7.585-1.872,9.457-2.256v-0.288c0-2.448-0.144-4.225-0.288-4.8
		c-0.432-1.632-1.824-2.736-3.696-2.736c-1.296,0-2.256,0.384-2.784,1.056c-0.864,1.104-1.056,2.832-0.624,4.752l-0.144,0.096
		c-3.168-0.768-4.032-3.408-2.208-5.041c1.44-1.296,3.745-2.112,6.913-2.112c3.552,0,6.288,1.488,6.912,3.792
		c0.336,1.249,0.336,2.448,0.336,3.552v8.977c0,2.352,0.672,3.552,2.256,3.792c0.336,0.048,0.864,0.048,1.104,0.048V32.926z
		 M43.021,30.525c1.008-1.104,1.488-2.496,1.584-4.8v-3.264c-1.056,0.144-4.561,0.96-5.904,1.392
		c-1.249,0.384-1.968,1.632-1.968,3.792c0,2.497,1.344,4.128,3.504,4.128C41.196,31.773,42.252,31.341,43.021,30.525z"/>
	<path fill="#FFFFFF" d="M53.704,13.772l-2.304-0.192v-0.96h10.801v0.96L58.6,13.772l6.097,13.681l6.145-13.681l-3.6-0.192v-0.96
		h7.296v0.96l-2.448,0.192L63.017,34.03L53.704,13.772z"/>
	<path fill="#FFFFFF" d="M95.104,32.926c-0.191,0.048-0.864,0.192-1.68,0.24c-3.456,0.288-5.425,0-5.761-2.256
		c-0.048-0.336-0.096-0.96-0.096-1.056h-0.145c-0.624,1.728-2.784,3.696-6.432,3.696c-3.552,0-6.193-1.968-6.193-5.521
		c0-1.92,0.816-3.84,3.072-4.513c2.544-0.768,7.585-1.872,9.457-2.256v-0.288c0-2.448-0.145-4.225-0.288-4.8
		c-0.432-1.632-1.824-2.736-3.696-2.736c-1.296,0-2.256,0.384-2.784,1.056c-0.864,1.104-1.056,2.832-0.624,4.752l-0.144,0.096
		c-3.168-0.768-4.032-3.408-2.208-5.041c1.44-1.296,3.745-2.112,6.913-2.112c3.552,0,6.288,1.488,6.912,3.792
		c0.336,1.249,0.336,2.448,0.336,3.552v8.977c0,2.352,0.673,3.552,2.257,3.792c0.336,0.048,0.864,0.048,1.104,0.048V32.926z
		 M85.744,30.525c1.008-1.104,1.488-2.496,1.584-4.8v-3.264c-1.056,0.144-4.561,0.96-5.904,1.392
		c-1.249,0.384-1.968,1.632-1.968,3.792c0,2.497,1.344,4.128,3.504,4.128C83.92,31.773,84.976,31.341,85.744,30.525z"/>
	<path fill="#FFFFFF" d="M98.361,10.076c1.633-0.528,3.12-2.256,3.409-4.032h1.008v6.577h6.816v1.104h-6.768
		c-0.049,1.92-0.049,5.041-0.049,7.057v5.472c0,0.816,0.049,2.064,0.145,2.688c0.24,2.064,1.057,2.928,2.352,2.928
		c1.777,0,3.361-1.968,3.938-5.232h1.104c-0.625,4.224-2.736,6.864-6.434,6.864c-1.871,0-4.127-0.672-4.944-2.976
		c-0.384-1.056-0.576-2.736-0.576-5.376V13.724h-3.6V12.62h3.6V10.076z"/>
	<path fill="#FFFFFF" d="M119.723,12.62c-0.145,2.16-0.193,5.52-0.193,8.064v4.368c0,2.497,0,5.089,0.096,6.769l3.025,0.192v0.96
		h-10.609v-0.96l2.928-0.192c0.098-1.632,0.145-3.888,0.145-6.816v-3.36c0-2.16,0-5.521-0.145-7.873l-2.688-0.192v-0.96H119.723z
		 M117.178,2.635c1.729,0,2.545,1.2,2.545,2.641c0,1.344-0.961,2.544-2.641,2.544c-1.633,0-2.496-1.152-2.496-2.544
		C114.586,3.835,115.594,2.635,117.178,2.635z"/>
	<path fill="#FFFFFF" d="M139.403,32.974v-0.96l2.783-0.192c0.145-2.544,0.145-5.136,0.145-7.681v-2.496
		c0-3.168-0.145-4.704-0.289-5.28c-0.479-1.824-1.824-2.928-3.84-2.928c-2.111,0-3.695,1.296-4.607,3.12
		c-0.77,1.536-1.105,3.696-1.105,6.192v2.017c0,2.88,0,5.136,0.145,7.056l2.832,0.192v0.96H125.29v-0.96l2.639-0.192
		c0.098-1.632,0.145-3.888,0.145-6.816v-2.4c0-3.264,0-6.625-0.191-8.833l-2.641-0.192v-0.96h7.393
		c-0.336,1.536-0.912,3.744-1.104,5.664l0.24,0.048c0.814-3.648,3.072-6.337,8.016-6.337c3.457,0,5.953,1.488,6.576,3.792
		c0.336,1.248,0.385,2.448,0.385,3.552v5.425c0,2.352,0,4.752,0.096,7.056l2.977,0.192v0.96H139.403z"/>
	<path fill="#FFFFFF" d="M172.272,32.926c-0.191,0.048-0.863,0.192-1.68,0.24c-3.457,0.288-5.424,0-5.76-2.256
		c-0.049-0.336-0.098-0.96-0.098-1.056h-0.143c-0.625,1.728-2.785,3.696-6.434,3.696c-3.553,0-6.191-1.968-6.191-5.521
		c0-1.92,0.814-3.84,3.072-4.513c2.543-0.768,7.584-1.872,9.455-2.256v-0.288c0-2.448-0.143-4.225-0.287-4.8
		c-0.432-1.632-1.824-2.736-3.695-2.736c-1.297,0-2.258,0.384-2.785,1.056c-0.863,1.104-1.057,2.832-0.625,4.752l-0.143,0.096
		c-3.168-0.768-4.033-3.408-2.209-5.041c1.439-1.296,3.744-2.112,6.912-2.112c3.553,0,6.289,1.488,6.914,3.792
		c0.336,1.249,0.336,2.448,0.336,3.552v8.977c0,2.352,0.672,3.552,2.256,3.792c0.336,0.048,0.863,0.048,1.104,0.048V32.926z
		 M162.911,30.525c1.01-1.104,1.488-2.496,1.584-4.8v-3.264c-1.055,0.144-4.559,0.96-5.904,1.392
		c-1.248,0.384-1.967,1.632-1.967,3.792c0,2.497,1.344,4.128,3.504,4.128C161.086,31.773,162.143,31.341,162.911,30.525z"/>
</g>
<g>
</g>
<g>
</g>
<g>
</g>
<g>
</g>
<g>
</g>
<g>
</g>
</svg>
